# xmcd CD database file
#
# Track frame offsets:
#	150
#	19468
#	38399
#	53556
#	69550
#	87698
#	101957
#	116696
#	133637
#	150842
#	166462
#	184187
#	203372
#	224782
#	242229
#	263098
#	276856
#	291739
#	312036
#	327961
#
# Disc length: 4613 seconds
#
# Revision: 2
# Processed by: cddbd v1.4b41PL1 Copyright (c) Steve Scherf et al.
# Submitted via: Feurio! 1.50.2ß - http://www.feurio.com
#
DISCID=2d120314
DTITLE=Various Artist - Now hity 17 (9/2000)
DYEAR=1900
DGENRE=
TTITLE0=ROBBIE WILLIAMS - Rock Dj
TTITLE1=MELANIE C - I Turn To You
TTITLE2=N'SYNC - Bye Bye Bye
TTITLE3=BRINEY SPEARS - Oops! ... I Did It Again
TTITLE4=REDNEX - The Spirit Of The Hawk
TTITLE5=VENGABOYS - Uncle John From Jamaica
TTITLE6=LIZA DE COSTA - Banana Coco
TTITLE7=A*TEENS - Gimme! Gimme! Gimme!
TTITLE8=MADISON AVENUE - Don't Call Me Baby
TTITLE9=KYLIE MINOGUE - Spinning Around
TTITLE10=BACKSTREET BOYS - Show Me The Meaning Of Being Lonely
TTITLE11=SASHA - Let Me Be The One
TTITLE12=AALYAH - Try Again
TTITLE13=REAMON - Supergirl
TTITLE14=A-HA - Summer Moved On
TTITLE15=OLSEN BROTHERS - Fly On The Wings Of Love
TTITLE16=MARY MARY - Shackles (Praise You)
TTITLE17=COLDPLAY - Yellow
TTITLE18=MOBY - Porcelain
TTITLE19=MAXIM and SKIN - Carmen Queasy
EXTD=
EXTT0=
EXTT1=
EXTT2=
EXTT3=
EXTT4=
EXTT5=
EXTT6=
EXTT7=
EXTT8=
EXTT9=
EXTT10=
EXTT11=
EXTT12=
EXTT13=
EXTT14=
EXTT15=
EXTT16=
EXTT17=
EXTT18=
EXTT19=
PLAYORDER=
